<svg width="32" height="32" viewBox="0 0 24 24" fill="none">
  <rect width="24" height="24" rx="6" fill="#7289da"/>
  <path d="M18.36 17.38a10.39 10.39 0 00-2.2-.66c.16-.23.3-.47.41-.72a9.2 9.2 0 002.13-5.34c-2.24-1.59-4.35-2.34-6.44-2.34s-4.2.75-6.44 2.34a9.2 9.2 0 002.13 5.34c.12.25.25.49.41.72-.76.17-1.5.39-2.2.66C2.58 16.32 2 15.67 2 15.67s2.28-5.05 10-5.05 10 5.05 10 5.05-1.11 1.13-3.64 1.71zM8.12 14.3c-.65 0-1.17-.6-1.17-1.34s.52-1.34 1.17-1.34c.65 0 1.17.6 1.17 1.34s-.52 1.34-1.17 1.34zm7.76 0c-.65 0-1.17-.6-1.17-1.34s.52-1.34 1.17-1.34c.65 0 1.17.6 1.17 1.34s-.52 1.34-1.17 1.34z" fill="#fff"/>
</svg>