<svg width="32" height="32" viewBox="0 0 24 24" fill="none">
  <rect width="24" height="24" rx="6" fill="#222"/>
  <path d="M12 3C7.03 3 3 7.03 3 12a9 9 0 006.14 8.54c.45.08.62-.2.62-.44 0-.22-.01-.94-.01-1.71-2.5.54-3.02-1.07-3.02-1.07-.41-1.03-.99-1.3-.99-1.3-.81-.55.06-.54.06-.54.89.06 1.36.91 1.36.91.8 1.37 2.1.97 2.61.74.08-.58.31-.97.56-1.2-2-.22-4.1-1-4.1-4.45 0-.98.35-1.78.92-2.41-.09-.22-.4-1.12.09-2.33 0 0 .75-.24 2.45.92a8.5 8.5 0 014.45 0c1.7-1.16 2.45-.92 2.45-.92.49 1.21.18 2.11.09 2.33.57.63.92 1.43.92 2.41 0 3.46-2.1 4.23-4.1 4.45.32.27.6.8.6 1.62 0 1.17-.01 2.11-.01 2.39 0 .24.16.53.62.44A9 9 0 0021 12c0-4.97-4.03-9-9-9z" fill="#fff"/>
</svg>