<svg xmlns="http://www.w3.org/2000/svg" xmlns:xlink="http://www.w3.org/1999/xlink" viewBox="0 0 4096 4096"><defs><style>.cls-1,.cls-2,.cls-3,.cls-4{stroke:#231f20;}.cls-1,.cls-2,.cls-3,.cls-4,.cls-5{stroke-miterlimit:10;}.cls-1{fill:url(#linear-gradient);}.cls-2{fill:url(#linear-gradient-2);}.cls-3{fill:url(#linear-gradient-3);}.cls-4{fill:url(#linear-gradient-4);}.cls-5{fill:url(#linear-gradient-5);stroke:url(#linear-gradient-6);}</style><linearGradient id="linear-gradient" x1="3276.15" y1="1601.11" x2="2430.93" y2="910.85" gradientUnits="userSpaceOnUse"><stop offset="0" stop-color="#2d489e"/><stop offset="0.11" stop-color="#2b4ca1"/><stop offset="0.22" stop-color="#2557aa"/><stop offset="0.32" stop-color="#1b6ab8"/><stop offset="0.42" stop-color="#0d85cc"/><stop offset="0.49" stop-color="#009ddf"/><stop offset="1" stop-color="#009bde"/></linearGradient><linearGradient id="linear-gradient-2" x1="3533.41" y1="1079.26" x2="2810.28" y2="407.78" gradientUnits="userSpaceOnUse"><stop offset="0" stop-color="#2d489e"/><stop offset="0.1" stop-color="#2b4ca1"/><stop offset="0.19" stop-color="#2557aa"/><stop offset="0.27" stop-color="#1b6ab8"/><stop offset="0.36" stop-color="#0d85cc"/><stop offset="0.42" stop-color="#009ddf"/><stop offset="1" stop-color="#009bde"/></linearGradient><linearGradient id="linear-gradient-3" x1="3073.78" y1="2177.26" x2="2111.17" y2="1444.74" gradientUnits="userSpaceOnUse"><stop offset="0" stop-color="#2d489e"/><stop offset="0.15" stop-color="#2b4ca1"/><stop offset="0.29" stop-color="#2557aa"/><stop offset="0.43" stop-color="#1b6ab8"/><stop offset="0.56" stop-color="#0d85cc"/><stop offset="0.66" stop-color="#009ddf"/><stop offset="1" stop-color="#009bde"/></linearGradient><linearGradient id="linear-gradient-4" x1="3145.91" y1="3082.17" x2="1732.52" y2="1842.51" gradientUnits="userSpaceOnUse"><stop offset="0" stop-color="#2d489e"/><stop offset="0.21" stop-color="#2b4ca1"/><stop offset="0.4" stop-color="#2557aa"/><stop offset="0.6" stop-color="#1b6ab8"/><stop offset="0.78" stop-color="#0d85cc"/><stop offset="0.92" stop-color="#009ddf"/><stop offset="1" stop-color="#009bde"/></linearGradient><linearGradient id="linear-gradient-5" x1="2784.28" y1="3140.21" x2="655.09" y2="1011.02" gradientUnits="userSpaceOnUse"><stop offset="0" stop-color="#2d489e"/><stop offset="0.37" stop-color="#1a6dba"/><stop offset="0.78" stop-color="#0790d5"/><stop offset="1" stop-color="#009ddf"/></linearGradient><linearGradient id="linear-gradient-6" x1="683.18" y1="2097.84" x2="3136.53" y2="2097.84" gradientUnits="userSpaceOnUse"><stop offset="0" stop-color="#2d489e"/><stop offset="1" stop-color="#2d489e"/></linearGradient></defs><g id="Cube_4" data-name="Cube 4"><rect class="cls-1" x="2744.3" y="1129.78" width="365.09" height="372.13" rx="93.91"/></g><g id="Cube_3" data-name="Cube 3"><rect class="cls-2" x="3051.09" y="614.83" width="365.09" height="372.13" rx="93.91"/></g><g id="Cube_2" data-name="Cube 2"><rect class="cls-3" x="2435.96" y="1644.74" width="365.09" height="372.13" rx="93.91"/></g><g id="Cube_1" data-name="Cube 1"><rect class="cls-4" x="2174.57" y="2208.22" width="309.42" height="315.39" rx="93.91"/></g><g id="Layer_8" data-name="Layer 8"><path class="cls-5" d="M3124.65,2805.35c-20.91-35.68-66.17-45-83-48.52-179.59-37.8-872.1,30.83-935.61-5.09-23.46-13.26-24.66-28.17-24.66-28.17-.61-11.15,7.41-19.76,12.92-25.83,0,0,25.5-28.13,75.13-106.83,4.25-6.74,8.63-16.95,10.56-30.52,3.32-23.29-4.26-41.82-6.51-47.12-15.24-36-50.83-50.45-57.23-53.05-65.9-26.76-135.18,22.3-147.05,30.71-14.75,10.44-23.06,16.73-51,51.85-36.61,46-118,135.38-182.15,233.87a121.85,121.85,0,0,0-16.28,35.36c-2.65,9.68-15.15,54.57,11.16,92.61,18,26,44.66,35.21,55.85,39.09.9.31,20.51,6.95,42.34,7,30.8,0,892.21-12,942.78-1.86,17,3.41,24.67,13.49,24.67,13.49a31.8,31.8,0,0,1,5.61,12.56,40.94,40.94,0,0,1,.9,8.85c-.19,10.2-45.41,226.7-207.07,258.73a194.49,194.49,0,0,1-44.21,3.72c-143.11-5.26-1307.73,7.12-1431.38-2.27-8.43-.64-28.31-2.61-41.64-16.92-2.09-2.23-10-11.22-11.67-24.47,0,0-2.25-18.25,12.41-38.61,631.25-876.4,1664.1-2231.41,1698-2302.17A112.57,112.57,0,0,0,2787.66,822a89.94,89.94,0,0,0-10.54-46.78,92.69,92.69,0,0,0-37-36.36c-20.93-11.15-41.06-11.11-46.45-11.15-1290-10.88-1329.42-7.57-1408.19-.93-3.9.33-14.18,1.42-24.85,3-6.84,1-26.85,4-46.5,9.65a250,250,0,0,0-72.68,34.64c-20.32,14.29-33.37,28.46-42.73,38.9-47.94,53.49-96.38,117.93-116.83,145.55C828.7,1155.83,722.76,1306,701.37,1352.6c-12.11,26.36-12.76,52.94-12.76,52.94-.11,4.47-.67,47,23,75.91,27.58,33.7,77.86,36.27,105.25,36.36,83.32.27,1057.45-18.84,1122.57-9.24,6.95,1,26.83,4.06,36.39,18.78,8.06,12.41,5.61,26.41,4.7,31.69a65.16,65.16,0,0,1-11.74,25.83c-695,892.66-885.17,1165.24-1265.48,1710.39A120.81,120.81,0,0,0,686,3333.61c-8,36.29,6.66,67.22,9,72,25.22,51.37,81.51,62.76,90.39,64.56a123.07,123.07,0,0,0,17,2.25s.89.06,1.84.1c24.21,1.13,1662.13-1.49,1778.48,2.35a209.46,209.46,0,0,0,33.86-1.41c56.37-6.93,96.63-34,115-46.74,132.69-92,394.42-430.82,404-565.81C3136.34,2850.55,3137.61,2827.45,3124.65,2805.35ZM1343.72,1311.18c-3.34,0-92.21,1.73-270,4.18-34.65.48-101.47.83-111.53-27-3.52-9.76,1.09-19.79,3.48-24.79,45.12-94.52,146.65-209.5,199.87-279.09,7.66-10,21.14-28,45.14-44.14,9.63-6.48,41.9-26.72,95.09-30.8,66.67-5.12,518-11.82,1137.51-13.76,14.2,3.45,32.44,10.52,40.35,26.28,14.4,28.71-13.67,68.74-38.26,102.85-162.27,225.14-194,245.17-224.74,258.76-22.56,10-46.6,25.22-115,27C1851.72,1317.24,1597.66,1310.64,1343.72,1311.18Z"/></g></svg>